<?xml version="1.0" standalone="no"?>
<!DOCTYPE svg PUBLIC "-//W3C//DTD SVG 20010904//EN"
 "http://www.w3.org/TR/2001/REC-SVG-20010904/DTD/svg10.dtd">
<svg version="1.0" xmlns="http://www.w3.org/2000/svg"
 width="140.000000pt" height="140.000000pt" viewBox="0 0 140.000000 140.000000"
 preserveAspectRatio="xMidYMid meet">

<g transform="translate(0.000000,140.000000) scale(0.100000,-0.100000)"
fill="#000000" stroke="none">
<path d="M58 1373 c-55 -9 -53 16 -53 -685 l0 -650 24 -19 c23 -19 44 -19 677
-17 612 3 654 4 671 21 16 15 18 39 20 173 1 138 0 155 -14 150 -14 -6 -14 -4
-2 11 7 10 9 15 5 11 -5 -4 -15 0 -23 10 -8 9 -11 11 -7 3 5 -10 3 -12 -5 -7
-7 5 -10 14 -7 21 3 8 -4 17 -15 20 -11 4 -18 12 -17 18 2 7 -1 13 -5 14 -4 1
-15 9 -23 18 -9 8 -20 12 -26 9 -6 -4 -8 2 -4 17 3 13 3 18 0 12 -3 -7 -10
-13 -15 -13 -6 0 -7 5 -3 12 5 8 2 9 -11 4 -16 -6 -16 -4 -4 11 7 10 9 15 5
11 -16 -14 -34 25 -29 62 3 25 -3 16 -19 -30 -104 -295 -414 -421 -697 -284
-153 75 -261 256 -261 440 0 176 108 355 259 430 63 31 83 59 50 69 -11 4 -18
12 -17 18 2 7 0 12 -3 12 -3 0 -13 8 -23 18 -10 9 -22 14 -28 11 -6 -4 -8 2
-4 17 3 13 3 18 0 12 -3 -7 -10 -13 -15 -13 -6 0 -7 5 -3 12 5 8 2 9 -11 4
-16 -6 -16 -4 -4 11 7 10 9 15 5 11 -5 -4 -15 0 -23 10 -8 9 -11 11 -7 3 5
-10 3 -12 -5 -7 -7 5 -10 14 -7 21 2 7 -2 16 -10 19 -24 9 -36 7 -29 -4 4 -6
10 -8 14 -6 4 3 8 -2 8 -10 0 -11 -5 -10 -22 6 -19 18 -34 20 -141 19 -65 -1
-131 -4 -146 -6z m416 -112 c3 -5 -1 -11 -9 -15 -8 -3 -17 0 -21 6 -4 7 -3 8
4 4 7 -4 12 -2 12 3 0 13 7 14 14 2z m31 -21 c-3 -5 -14 -10 -23 -9 -14 0 -13
2 3 9 27 11 27 11 20 0z m17 -35 c2 3 5 -2 5 -10 0 -19 0 -19 -23 7 -12 14
-13 18 -3 10 9 -6 18 -10 21 -7z m752 -744 c3 -5 -1 -11 -9 -15 -8 -3 -17 0
-21 6 -4 7 -3 8 4 4 7 -4 12 -2 12 3 0 13 7 14 14 2z m31 -21 c-3 -5 -14 -10
-23 -9 -14 0 -13 2 3 9 27 11 27 11 20 0z m17 -35 c2 3 5 -2 5 -10 0 -19 0
-19 -23 7 -12 14 -13 18 -3 10 9 -6 18 -10 21 -7z"/>
<path d="M1045 1300 c-29 -12 -62 -46 -81 -82 -12 -23 -14 -44 -9 -83 7 -57
-5 -77 -30 -51 -53 52 -252 68 -357 27 -32 -12 -58 -26 -58 -30 0 -3 24 -29
53 -57 l52 -50 107 1 108 0 41 40 c25 24 39 32 35 22 -3 -10 -6 -62 -6 -114
l0 -95 -39 34 c-81 74 -204 72 -288 -5 -143 -132 -49 -370 147 -370 110 0 194
72 214 186 6 33 10 37 36 37 33 0 37 -12 21 -66 -8 -30 -6 -34 51 -84 47 -42
62 -50 69 -39 11 17 35 100 44 152 l6 37 67 0 c40 0 73 5 80 12 8 8 12 60 12
169 0 154 -1 158 -24 176 -19 15 -24 31 -28 81 -5 69 -24 103 -78 140 -34 23
-105 29 -145 12z m136 -79 c25 -25 29 -37 29 -84 l0 -55 -97 -4 c-54 -2 -101
-2 -104 1 -4 3 -3 33 2 66 10 74 39 105 100 105 31 0 47 -7 70 -29z m21 -201
l58 0 0 -125 0 -125 -30 -2 c-76 -4 -73 -6 -86 46 -12 45 -11 52 8 78 19 27
19 30 4 53 -31 47 -106 16 -92 -38 4 -19 -3 -30 -38 -60 -35 -29 -43 -41 -39
-61 4 -21 1 -26 -16 -26 -20 0 -21 4 -21 128 0 71 3 132 8 136 4 5 47 6 96 2
49 -3 115 -6 148 -6z"/>
<path d="M309 853 c-31 -79 -31 -204 1 -285 12 -32 24 -58 26 -58 3 0 31 23
63 51 l57 50 -10 50 c-7 33 -7 65 0 99 l11 51 -58 49 c-31 28 -59 50 -62 50
-3 0 -16 -26 -28 -57z"/>
<path d="M563 398 c-66 -66 -65 -67 27 -95 70 -21 190 -21 260 0 92 28 93 29
27 95 l-58 58 -49 -10 c-34 -7 -66 -7 -100 0 l-49 10 -58 -58z"/>
</g>
</svg>
